# xmcd
#
# Track frame offsets: 
#        150
#        9074
#        23636
#        31773
#        36588
#        53479
#        65078
#        88192
#        98357
#        118210
#        132715
#        145230
#        153947
#        170492
#        187808
#        206030
#
# Disc length: 2918 seconds
#
# Revision: 0
# Processed by: cddbd v1.5.2PL0 Copyright (c) Steve Scherf et al.
# Submitted via: ExactAudioCopy v0.99pb4
#
DISCID=d10b6410
DTITLE=Hijack Oscar - BlackSheepMoneyBox
DYEAR=1900
DGENRE=Blues
TTITLE0=The Ambiguous Report
TTITLE1=Social Immunity
TTITLE2=Lifetime Guarantee
TTITLE3=C.B.J.
TTITLE4=Greed
TTITLE5=Cral Heathen
TTITLE6=This is a Warning
TTITLE7=Reunion Ball
TTITLE8=BlackSheepMoneyBox
TTITLE9=Down in the Valley
TTITLE10=Rambling On
TTITLE11=Devil on My Shoulder
TTITLE12=Child
TTITLE13=Last Chance Saloon
TTITLE14=Echoes
TTITLE15=Ten Thousand Questions
EXTD=
EXTT0=
EXTT1=
EXTT2=
EXTT3=
EXTT4=
EXTT5=
EXTT6=
EXTT7=
EXTT8=
EXTT9=
EXTT10=
EXTT11=
EXTT12=
EXTT13=
EXTT14=
EXTT15=
PLAYORDER=
